<svg version="1.1" xmlns="http://www.w3.org/2000/svg" style="display: block;" viewBox="0 0 2048 2048" width="1024" height="1024" preserveAspectRatio="none">
<path transform="translate(0,0)" fill="rgba(0,0,0,0)" d="M 0 0 L 2048 0 L 2048 2048 L 0 2048 L 0 0 z"/>
<path transform="translate(0,0)" fill="rgb(255,255,255)" d="M 1255.06 705.642 C 1270.68 707.871 1299.86 714.994 1315.94 719.422 C 1390.72 739.296 1461.51 771.895 1525.22 815.79 C 1630.12 888.096 1709.49 991.087 1732.63 1118.28 C 1753.68 1235.26 1727.29 1355.82 1659.29 1453.31 C 1575.55 1573.96 1446.83 1638.73 1305.16 1664.18 C 1251.63 1672.62 1179.66 1682.07 1146.57 1628.36 C 1133.42 1606.7 1129.33 1580.74 1135.17 1556.08 C 1150.94 1490.66 1203.86 1494.48 1256.95 1485.55 C 1318.38 1475.22 1384.68 1459.96 1438.35 1426.99 C 1570.82 1345.6 1591.73 1162.4 1511.04 1037.31 C 1449.2 941.086 1361.92 883.731 1251.97 857.839 C 1251.9 806.149 1253.18 757.196 1255.06 705.642 z"/>
<path transform="translate(0,0)" fill="rgb(255,255,255)" d="M 798.774 698.369 C 798.819 698.405 798.873 698.431 798.907 698.476 C 802.889 703.724 801.156 819.412 800.972 835.769 C 737.813 851.658 678.698 880.64 627.457 920.837 C 508.571 1015.63 445.704 1179.19 516.75 1323.08 C 565.082 1420.97 671.613 1462.36 772.476 1481.04 C 801.678 1487.06 829.921 1488.09 858.924 1495.43 C 929.767 1513.35 935.751 1612.27 882.663 1652.87 C 846.041 1680.87 793.208 1671.73 750.763 1666.05 C 662.329 1650.87 586.047 1623.1 510.999 1573.13 C 410.928 1507.75 341.02 1405.2 316.73 1288.16 C 292.808 1171.84 316.985 1050.79 383.754 952.587 C 477.305 812.909 637.18 730.582 798.774 698.369 z"/>
<path transform="translate(0,0)" fill="rgb(255,255,255)" d="M 1033.19 777.708 C 1046.69 782.344 1118.18 860.189 1129.97 875.659 L 1130.01 1253.39 C 1129.71 1305.93 1129.98 1358.47 1130.82 1411 C 1131.14 1435.08 1130.81 1460.42 1132.05 1484.37 C 1118.56 1498.13 1105.95 1516.27 1098.34 1533.98 C 1084.78 1565.55 1084.41 1601.23 1097.3 1633.07 C 1112.27 1669.47 1141.9 1694.26 1177.54 1709.08 C 1130.85 1742.94 1080.27 1756.52 1023.25 1757.14 C 969.647 1757.48 917.718 1739.98 873.442 1710.32 C 899.079 1699.7 921.37 1682.36 937.959 1660.12 C 961.607 1629.05 966.38 1592.61 960.72 1554.79 C 956.366 1525.7 946.829 1506.24 923.33 1488.73 C 925.004 1467.5 924.597 1434.36 924.889 1412.5 C 925.703 1364.1 926.047 1315.69 925.92 1267.28 L 925.924 887.983 C 954.402 850.727 997.33 807.401 1033.19 777.708 z"/>
<path transform="translate(0,0)" fill="rgb(255,255,255)" d="M 1007.35 242.891 C 1121.22 234.152 1220.65 319.296 1229.54 433.156 C 1238.43 547.016 1153.41 646.557 1039.56 655.591 C 925.508 664.643 825.744 579.437 816.841 465.368 C 807.937 351.3 893.272 251.647 1007.35 242.891 z"/>
<path transform="translate(0,0)" fill="rgb(255,255,255)" d="M 728.03 1046.94 C 776.135 1045.94 826.303 1046.97 874.766 1046.59 C 873.192 1088.24 874.471 1138.44 874.438 1180.51 C 873.843 1273.03 874.141 1365.56 875.334 1458.07 C 875.039 1458.66 874.488 1459.07 874.04 1459.54 C 864.469 1457.38 854.864 1455.24 845.273 1453.16 C 806.077 1444.68 766.641 1444.66 728.033 1433.5 L 728.03 1046.94 z"/>
<path transform="translate(0,0)" fill="rgb(255,255,255)" d="M 1188.39 1055.23 C 1227.14 1054.6 1266.06 1055.31 1304.83 1054.92 C 1311.01 1054.86 1334.25 1054.03 1337.91 1057.25 C 1341.18 1063.54 1339.05 1137.24 1338.86 1149.01 C 1336.92 1242.48 1338.03 1335.99 1342.21 1429.39 L 1320.24 1434.18 C 1294.02 1438.54 1267.81 1443.02 1241.64 1447.65 C 1224.83 1450.63 1205.39 1454.6 1188.7 1456.46 L 1188.39 1055.23 z"/>
<path transform="translate(0,0)" fill="rgb(255,255,255)" d="M 634.705 1248.48 L 684.692 1248.16 C 682.044 1285.63 682.485 1325.68 681.432 1363.3 C 680.917 1381.72 681.469 1400.01 680.179 1418.47 C 667.465 1414.09 654.786 1409.62 642.142 1405.04 C 634.475 1402.11 626.552 1399.25 618.925 1396.53 C 613.17 1394.47 596.701 1391.31 593.025 1388.72 C 581.059 1371.1 577.858 1274.49 577.981 1248.93 L 634.705 1248.48 z"/>
<path transform="translate(0,0)" fill="rgb(255,255,255)" d="M 1387.91 1236.02 C 1403.33 1236.03 1418.75 1235.94 1434.17 1235.73 C 1442.57 1235.64 1452.03 1235.27 1460.39 1235.95 C 1461.8 1236.06 1463.94 1236.3 1464.21 1237.51 C 1468.7 1257.1 1466.21 1360.87 1462.99 1375.53 C 1456.52 1382.7 1452.1 1384.1 1443.39 1388 C 1422.98 1397.52 1411.95 1403.83 1390 1412.08 C 1389.99 1353.15 1388.18 1294.8 1387.91 1236.02 z"/>
</svg>